<mxfile host="app.diagrams.net" modified="2024-02-24T18:59:27.084Z" agent="Mozilla/5.0 (Windows NT 10.0; Win64; x64) AppleWebKit/537.36 (KHTML, like Gecko) Chrome/121.0.0.0 Safari/537.36" etag="pqOxazl2iymtbeJQdGGo" version="23.1.5" type="device">
  <diagram name="Страница — 1" id="E_wIanMVbkvgh1QtjZbT">
    <mxGraphModel dx="1050" dy="1691" grid="1" gridSize="10" guides="1" tooltips="1" connect="1" arrows="1" fold="1" page="1" pageScale="1" pageWidth="827" pageHeight="1169" math="0" shadow="0">
      <root>
        <mxCell id="0" />
        <mxCell id="1" parent="0" />
        <mxCell id="IIQIi5hv_bcrO9mT0bTP-3" value="" style="edgeStyle=orthogonalEdgeStyle;rounded=0;orthogonalLoop=1;jettySize=auto;html=1;entryX=0.5;entryY=0;entryDx=0;entryDy=0;" edge="1" parent="1" source="IIQIi5hv_bcrO9mT0bTP-1" target="IIQIi5hv_bcrO9mT0bTP-4">
          <mxGeometry relative="1" as="geometry">
            <mxPoint x="400" y="-1020" as="targetPoint" />
            <Array as="points">
              <mxPoint x="340" y="-1030" />
              <mxPoint x="340" y="-1030" />
            </Array>
          </mxGeometry>
        </mxCell>
        <mxCell id="IIQIi5hv_bcrO9mT0bTP-1" value="start" style="ellipse;whiteSpace=wrap;html=1;" vertex="1" parent="1">
          <mxGeometry x="280" y="-1150" width="120" height="80" as="geometry" />
        </mxCell>
        <mxCell id="IIQIi5hv_bcrO9mT0bTP-6" value="" style="edgeStyle=orthogonalEdgeStyle;rounded=0;orthogonalLoop=1;jettySize=auto;html=1;" edge="1" parent="1" source="IIQIi5hv_bcrO9mT0bTP-4">
          <mxGeometry relative="1" as="geometry">
            <mxPoint x="340" y="-900" as="targetPoint" />
          </mxGeometry>
        </mxCell>
        <mxCell id="IIQIi5hv_bcrO9mT0bTP-24" style="edgeStyle=orthogonalEdgeStyle;rounded=0;orthogonalLoop=1;jettySize=auto;html=1;entryX=1;entryY=0.5;entryDx=0;entryDy=0;" edge="1" parent="1" source="IIQIi5hv_bcrO9mT0bTP-4" target="IIQIi5hv_bcrO9mT0bTP-21">
          <mxGeometry relative="1" as="geometry">
            <Array as="points">
              <mxPoint x="680" y="-975" />
              <mxPoint x="680" y="-415" />
            </Array>
          </mxGeometry>
        </mxCell>
        <mxCell id="IIQIi5hv_bcrO9mT0bTP-4" value="string[] inputArr = { &quot;Hello&quot;, &quot;2&quot;, &quot;world&quot;, &quot;:-)&quot; };&lt;br&gt;string[] filteredArr = FilterArray(inputArr);" style="rounded=0;whiteSpace=wrap;html=1;" vertex="1" parent="1">
          <mxGeometry x="210" y="-1020" width="260" height="90" as="geometry" />
        </mxCell>
        <mxCell id="IIQIi5hv_bcrO9mT0bTP-15" value="" style="edgeStyle=orthogonalEdgeStyle;rounded=0;orthogonalLoop=1;jettySize=auto;html=1;" edge="1" parent="1" source="IIQIi5hv_bcrO9mT0bTP-7">
          <mxGeometry relative="1" as="geometry">
            <mxPoint x="340" y="-630" as="targetPoint" />
          </mxGeometry>
        </mxCell>
        <mxCell id="IIQIi5hv_bcrO9mT0bTP-20" style="edgeStyle=orthogonalEdgeStyle;rounded=0;orthogonalLoop=1;jettySize=auto;html=1;exitX=1;exitY=0.5;exitDx=0;exitDy=0;entryX=0;entryY=0.5;entryDx=0;entryDy=0;" edge="1" parent="1" source="IIQIi5hv_bcrO9mT0bTP-7" target="IIQIi5hv_bcrO9mT0bTP-19">
          <mxGeometry relative="1" as="geometry" />
        </mxCell>
        <mxCell id="IIQIi5hv_bcrO9mT0bTP-7" value="foreach (string str in filteredArr)" style="whiteSpace=wrap;html=1;rounded=0;" vertex="1" parent="1">
          <mxGeometry x="245" y="-710" width="190" height="50" as="geometry" />
        </mxCell>
        <mxCell id="IIQIi5hv_bcrO9mT0bTP-13" style="edgeStyle=orthogonalEdgeStyle;rounded=0;orthogonalLoop=1;jettySize=auto;html=1;entryX=0.5;entryY=0;entryDx=0;entryDy=0;exitX=0.502;exitY=0.835;exitDx=0;exitDy=0;exitPerimeter=0;" edge="1" parent="1" source="IIQIi5hv_bcrO9mT0bTP-17" target="IIQIi5hv_bcrO9mT0bTP-7">
          <mxGeometry relative="1" as="geometry">
            <mxPoint x="340" y="-750" as="sourcePoint" />
          </mxGeometry>
        </mxCell>
        <mxCell id="IIQIi5hv_bcrO9mT0bTP-16" style="edgeStyle=orthogonalEdgeStyle;rounded=0;orthogonalLoop=1;jettySize=auto;html=1;exitX=0;exitY=0.5;exitDx=0;exitDy=0;entryX=0;entryY=0.5;entryDx=0;entryDy=0;" edge="1" parent="1" target="IIQIi5hv_bcrO9mT0bTP-7">
          <mxGeometry relative="1" as="geometry">
            <mxPoint x="265" y="-570" as="sourcePoint" />
            <Array as="points">
              <mxPoint x="225" y="-570" />
              <mxPoint x="225" y="-685" />
            </Array>
          </mxGeometry>
        </mxCell>
        <mxCell id="IIQIi5hv_bcrO9mT0bTP-17" value="&#xa;&lt;span style=&quot;color: rgb(0, 0, 0); font-family: Helvetica; font-size: 12px; font-style: normal; font-variant-ligatures: normal; font-variant-caps: normal; font-weight: 400; letter-spacing: normal; orphans: 2; text-align: center; text-indent: 0px; text-transform: none; widows: 2; word-spacing: 0px; -webkit-text-stroke-width: 0px; background-color: rgb(251, 251, 251); text-decoration-thickness: initial; text-decoration-style: initial; text-decoration-color: initial; float: none; display: inline !important;&quot;&gt;Console.WriteLine(&quot;Новый массив строк:&quot;);&lt;/span&gt;&#xa;&#xa;" style="shape=document;whiteSpace=wrap;html=1;boundedLbl=1;" vertex="1" parent="1">
          <mxGeometry x="245" y="-900" width="190" height="120" as="geometry" />
        </mxCell>
        <mxCell id="IIQIi5hv_bcrO9mT0bTP-18" value="Console.WriteLine(str);" style="shape=document;whiteSpace=wrap;html=1;boundedLbl=1;" vertex="1" parent="1">
          <mxGeometry x="265" y="-629" width="170" height="90" as="geometry" />
        </mxCell>
        <mxCell id="IIQIi5hv_bcrO9mT0bTP-19" value="End" style="rounded=1;whiteSpace=wrap;html=1;" vertex="1" parent="1">
          <mxGeometry x="540" y="-715" width="120" height="60" as="geometry" />
        </mxCell>
        <mxCell id="IIQIi5hv_bcrO9mT0bTP-23" value="" style="edgeStyle=orthogonalEdgeStyle;rounded=0;orthogonalLoop=1;jettySize=auto;html=1;" edge="1" parent="1" source="IIQIi5hv_bcrO9mT0bTP-21" target="IIQIi5hv_bcrO9mT0bTP-22">
          <mxGeometry relative="1" as="geometry" />
        </mxCell>
        <mxCell id="IIQIi5hv_bcrO9mT0bTP-32" style="edgeStyle=orthogonalEdgeStyle;rounded=0;orthogonalLoop=1;jettySize=auto;html=1;entryX=-0.004;entryY=0.613;entryDx=0;entryDy=0;entryPerimeter=0;" edge="1" parent="1" source="IIQIi5hv_bcrO9mT0bTP-21" target="IIQIi5hv_bcrO9mT0bTP-33">
          <mxGeometry relative="1" as="geometry">
            <mxPoint x="280" y="-50" as="targetPoint" />
            <Array as="points">
              <mxPoint x="220" y="-415" />
              <mxPoint x="220" y="-51" />
            </Array>
          </mxGeometry>
        </mxCell>
        <mxCell id="IIQIi5hv_bcrO9mT0bTP-21" value="static string[] FilterArray(string[] arr)&lt;br&gt;int count = 0;" style="rounded=0;whiteSpace=wrap;html=1;" vertex="1" parent="1">
          <mxGeometry x="245" y="-450" width="210" height="70" as="geometry" />
        </mxCell>
        <mxCell id="IIQIi5hv_bcrO9mT0bTP-26" value="" style="edgeStyle=orthogonalEdgeStyle;rounded=0;orthogonalLoop=1;jettySize=auto;html=1;" edge="1" parent="1" source="IIQIi5hv_bcrO9mT0bTP-22" target="IIQIi5hv_bcrO9mT0bTP-25">
          <mxGeometry relative="1" as="geometry" />
        </mxCell>
        <mxCell id="IIQIi5hv_bcrO9mT0bTP-22" value="foreach (string str in arr)" style="whiteSpace=wrap;html=1;rounded=0;" vertex="1" parent="1">
          <mxGeometry x="270" y="-340" width="160" height="40" as="geometry" />
        </mxCell>
        <mxCell id="IIQIi5hv_bcrO9mT0bTP-27" style="edgeStyle=orthogonalEdgeStyle;rounded=0;orthogonalLoop=1;jettySize=auto;html=1;entryX=0;entryY=0.5;entryDx=0;entryDy=0;" edge="1" parent="1" source="IIQIi5hv_bcrO9mT0bTP-25" target="IIQIi5hv_bcrO9mT0bTP-22">
          <mxGeometry relative="1" as="geometry">
            <Array as="points">
              <mxPoint x="250" y="-230" />
              <mxPoint x="250" y="-320" />
            </Array>
          </mxGeometry>
        </mxCell>
        <mxCell id="IIQIi5hv_bcrO9mT0bTP-29" value="" style="edgeStyle=orthogonalEdgeStyle;rounded=0;orthogonalLoop=1;jettySize=auto;html=1;" edge="1" parent="1" source="IIQIi5hv_bcrO9mT0bTP-25" target="IIQIi5hv_bcrO9mT0bTP-28">
          <mxGeometry relative="1" as="geometry" />
        </mxCell>
        <mxCell id="IIQIi5hv_bcrO9mT0bTP-25" value="if (str.Length &amp;lt;= 3)" style="rhombus;whiteSpace=wrap;html=1;" vertex="1" parent="1">
          <mxGeometry x="275" y="-270" width="150" height="80" as="geometry" />
        </mxCell>
        <mxCell id="IIQIi5hv_bcrO9mT0bTP-30" style="edgeStyle=orthogonalEdgeStyle;rounded=0;orthogonalLoop=1;jettySize=auto;html=1;entryX=1;entryY=0.5;entryDx=0;entryDy=0;" edge="1" parent="1" source="IIQIi5hv_bcrO9mT0bTP-28" target="IIQIi5hv_bcrO9mT0bTP-22">
          <mxGeometry relative="1" as="geometry">
            <Array as="points">
              <mxPoint x="480" y="-155" />
              <mxPoint x="480" y="-320" />
            </Array>
          </mxGeometry>
        </mxCell>
        <mxCell id="IIQIi5hv_bcrO9mT0bTP-28" value="count++;" style="whiteSpace=wrap;html=1;" vertex="1" parent="1">
          <mxGeometry x="290" y="-170" width="120" height="30" as="geometry" />
        </mxCell>
        <mxCell id="IIQIi5hv_bcrO9mT0bTP-33" value="string[] filteredArr = new string[count];&#xa;int index = 0;" style="rounded=0;whiteSpace=wrap;html=1;" vertex="1" parent="1">
          <mxGeometry x="245" y="-100" width="210" height="80" as="geometry" />
        </mxCell>
        <mxCell id="IIQIi5hv_bcrO9mT0bTP-37" value="" style="edgeStyle=orthogonalEdgeStyle;rounded=0;orthogonalLoop=1;jettySize=auto;html=1;" edge="1" parent="1" source="IIQIi5hv_bcrO9mT0bTP-38" target="IIQIi5hv_bcrO9mT0bTP-41">
          <mxGeometry relative="1" as="geometry" />
        </mxCell>
        <mxCell id="IIQIi5hv_bcrO9mT0bTP-38" value="foreach (string str in arr)" style="whiteSpace=wrap;html=1;rounded=0;" vertex="1" parent="1">
          <mxGeometry x="250" y="20" width="160" height="40" as="geometry" />
        </mxCell>
        <mxCell id="IIQIi5hv_bcrO9mT0bTP-39" style="edgeStyle=orthogonalEdgeStyle;rounded=0;orthogonalLoop=1;jettySize=auto;html=1;entryX=0;entryY=0.5;entryDx=0;entryDy=0;" edge="1" parent="1" source="IIQIi5hv_bcrO9mT0bTP-41" target="IIQIi5hv_bcrO9mT0bTP-38">
          <mxGeometry relative="1" as="geometry">
            <Array as="points">
              <mxPoint x="230" y="135" />
              <mxPoint x="230" y="40" />
            </Array>
          </mxGeometry>
        </mxCell>
        <mxCell id="IIQIi5hv_bcrO9mT0bTP-40" value="" style="edgeStyle=orthogonalEdgeStyle;rounded=0;orthogonalLoop=1;jettySize=auto;html=1;" edge="1" parent="1" source="IIQIi5hv_bcrO9mT0bTP-41">
          <mxGeometry relative="1" as="geometry">
            <mxPoint x="330" y="190" as="targetPoint" />
          </mxGeometry>
        </mxCell>
        <mxCell id="IIQIi5hv_bcrO9mT0bTP-41" value="if (str.Length &amp;lt;= 3)" style="rhombus;whiteSpace=wrap;html=1;" vertex="1" parent="1">
          <mxGeometry x="255" y="100" width="150" height="70" as="geometry" />
        </mxCell>
        <mxCell id="IIQIi5hv_bcrO9mT0bTP-42" style="edgeStyle=orthogonalEdgeStyle;rounded=0;orthogonalLoop=1;jettySize=auto;html=1;entryX=1;entryY=0.5;entryDx=0;entryDy=0;" edge="1" parent="1" target="IIQIi5hv_bcrO9mT0bTP-38">
          <mxGeometry relative="1" as="geometry">
            <mxPoint x="390" y="205" as="sourcePoint" />
            <Array as="points">
              <mxPoint x="390" y="240" />
              <mxPoint x="460" y="240" />
              <mxPoint x="460" y="40" />
            </Array>
          </mxGeometry>
        </mxCell>
        <mxCell id="IIQIi5hv_bcrO9mT0bTP-44" style="edgeStyle=orthogonalEdgeStyle;rounded=0;orthogonalLoop=1;jettySize=auto;html=1;entryX=1;entryY=0.5;entryDx=0;entryDy=0;" edge="1" parent="1" source="IIQIi5hv_bcrO9mT0bTP-43" target="IIQIi5hv_bcrO9mT0bTP-41">
          <mxGeometry relative="1" as="geometry">
            <Array as="points">
              <mxPoint x="425" y="220" />
              <mxPoint x="425" y="135" />
            </Array>
          </mxGeometry>
        </mxCell>
        <mxCell id="IIQIi5hv_bcrO9mT0bTP-46" value="" style="edgeStyle=orthogonalEdgeStyle;rounded=0;orthogonalLoop=1;jettySize=auto;html=1;" edge="1" parent="1" source="IIQIi5hv_bcrO9mT0bTP-43" target="IIQIi5hv_bcrO9mT0bTP-45">
          <mxGeometry relative="1" as="geometry" />
        </mxCell>
        <mxCell id="IIQIi5hv_bcrO9mT0bTP-43" value="&lt;div&gt;filteredArr[index] = str;&lt;/div&gt;&lt;div&gt;index++;&lt;/div&gt;" style="whiteSpace=wrap;html=1;" vertex="1" parent="1">
          <mxGeometry x="240" y="190" width="150" height="60" as="geometry" />
        </mxCell>
        <mxCell id="IIQIi5hv_bcrO9mT0bTP-47" style="edgeStyle=orthogonalEdgeStyle;rounded=0;orthogonalLoop=1;jettySize=auto;html=1;entryX=0;entryY=0.5;entryDx=0;entryDy=0;" edge="1" parent="1" source="IIQIi5hv_bcrO9mT0bTP-45" target="IIQIi5hv_bcrO9mT0bTP-4">
          <mxGeometry relative="1" as="geometry">
            <Array as="points">
              <mxPoint x="140" y="330" />
              <mxPoint x="140" y="-975" />
            </Array>
          </mxGeometry>
        </mxCell>
        <mxCell id="IIQIi5hv_bcrO9mT0bTP-45" value="return filteredArr;" style="whiteSpace=wrap;html=1;" vertex="1" parent="1">
          <mxGeometry x="242.5" y="300" width="145" height="60" as="geometry" />
        </mxCell>
      </root>
    </mxGraphModel>
  </diagram>
</mxfile>
